<svg width="751" height="571" viewBox="0 0 751 571" fill="none" xmlns="http://www.w3.org/2000/svg">
<g clip-path="url(#clip0)">
<path d="M363.18 504.593C201.753 492.279 9.24216 366.909 19.0432 237.819C28.8441 108.73 215.292 -11.4421 376.72 0.871097C538.148 13.1843 631.072 254.431 621.271 383.521C611.47 512.61 524.608 516.906 363.18 504.593Z" fill="#F2F2F2" fill-opacity="0.5"/>
<path d="M376.719 525.327C562.826 525.327 713.695 516.062 713.695 504.634C713.695 493.206 562.826 483.941 376.719 483.941C190.612 483.941 39.7432 493.206 39.7432 504.634C39.7432 516.062 190.612 525.327 376.719 525.327Z" fill="#3F3D56"/>
<path opacity="0.1" d="M376.719 517.984C535.241 517.984 663.748 511.858 663.748 504.3C663.748 496.743 535.241 490.616 376.719 490.616C218.197 490.616 89.6902 496.743 89.6902 504.3C89.6902 511.858 218.197 517.984 376.719 517.984Z" fill="black"/>
<path d="M141.635 570.717C219.68 570.717 282.947 565.188 282.947 558.368C282.947 551.548 219.68 546.019 141.635 546.019C63.5904 546.019 0.322632 551.548 0.322632 558.368C0.322632 565.188 63.5904 570.717 141.635 570.717Z" fill="#3F3D56"/>
<path opacity="0.1" d="M141.635 566.335C208.112 566.335 262.002 562.679 262.002 558.169C262.002 553.659 208.112 550.003 141.635 550.003C75.1582 550.003 21.2681 553.659 21.2681 558.169C21.2681 562.679 75.1582 566.335 141.635 566.335Z" fill="black"/>
<path d="M631.782 108.136H130.98V501.964H631.782V108.136Z" fill="#3F3D56"/>
<path d="M375.683 161.956H252.136C251.939 161.957 251.743 161.918 251.561 161.843C251.379 161.767 251.213 161.657 251.073 161.517C250.934 161.378 250.823 161.212 250.748 161.029C250.672 160.847 250.633 160.651 250.633 160.453C250.633 160.256 250.672 160.06 250.748 159.878C250.823 159.695 250.934 159.529 251.073 159.39C251.213 159.25 251.379 159.139 251.561 159.064C251.743 158.989 251.939 158.95 252.136 158.951H375.683C376.08 158.951 376.461 159.11 376.741 159.392C377.022 159.674 377.179 160.055 377.179 160.453C377.179 160.851 377.022 161.233 376.741 161.515C376.461 161.797 376.08 161.955 375.683 161.956Z" fill="#F2F2F2"/>
<path d="M510.925 178.488H316.608C316.211 178.488 315.829 178.329 315.548 178.047C315.267 177.765 315.109 177.383 315.109 176.985C315.109 176.586 315.267 176.204 315.548 175.922C315.829 175.64 316.211 175.482 316.608 175.482H510.925C511.122 175.482 511.317 175.521 511.499 175.596C511.681 175.672 511.846 175.782 511.986 175.922C512.125 176.062 512.235 176.227 512.311 176.41C512.386 176.592 512.425 176.787 512.425 176.985C512.425 177.182 512.386 177.377 512.311 177.56C512.235 177.742 512.125 177.908 511.986 178.047C511.846 178.187 511.681 178.298 511.499 178.373C511.317 178.449 511.122 178.488 510.925 178.488Z" fill="#F2F2F2"/>
<path d="M376.283 195.019H252.735C252.338 195.019 251.956 194.86 251.675 194.579C251.394 194.297 251.236 193.914 251.236 193.516C251.236 193.117 251.394 192.735 251.675 192.453C251.956 192.171 252.338 192.013 252.735 192.013H376.283C376.68 192.013 377.062 192.171 377.343 192.453C377.624 192.735 377.782 193.117 377.782 193.516C377.782 193.914 377.624 194.297 377.343 194.579C377.062 194.86 376.68 195.019 376.283 195.019Z" fill="#F2F2F2"/>
<path d="M510.926 195.319H387.378C386.98 195.319 386.599 195.161 386.318 194.879C386.037 194.597 385.879 194.215 385.879 193.817C385.879 193.418 386.037 193.036 386.318 192.754C386.599 192.472 386.98 192.314 387.378 192.314H510.926C511.323 192.314 511.705 192.472 511.986 192.754C512.267 193.036 512.425 193.418 512.425 193.817C512.425 194.215 512.267 194.597 511.986 194.879C511.705 195.161 511.323 195.319 510.926 195.319Z" fill="#F2F2F2"/>
<path d="M376.583 211.55H253.035C252.638 211.55 252.256 211.392 251.975 211.11C251.694 210.828 251.536 210.446 251.536 210.047C251.536 209.649 251.694 209.266 251.975 208.984C252.256 208.703 252.638 208.544 253.035 208.544H376.583C376.98 208.544 377.362 208.703 377.643 208.984C377.924 209.266 378.082 209.649 378.082 210.047C378.082 210.446 377.924 210.828 377.643 211.11C377.362 211.392 376.98 211.55 376.583 211.55Z" fill="#F2F2F2"/>
<path d="M376.883 228.081H253.335C252.938 228.081 252.556 227.923 252.275 227.641C251.994 227.359 251.836 226.977 251.836 226.578C251.836 226.18 251.994 225.798 252.275 225.516C252.556 225.234 252.938 225.076 253.335 225.076H376.883C377.28 225.076 377.662 225.234 377.943 225.516C378.224 225.798 378.382 226.18 378.382 226.578C378.382 226.977 378.224 227.359 377.943 227.641C377.662 227.923 377.28 228.081 376.883 228.081Z" fill="#F2F2F2"/>
<path d="M432.959 162.257H397.574C397.176 162.257 396.795 162.098 396.514 161.817C396.232 161.535 396.074 161.153 396.074 160.754C396.074 160.355 396.232 159.973 396.514 159.691C396.795 159.409 397.176 159.251 397.574 159.251H432.959C433.356 159.251 433.738 159.409 434.019 159.691C434.3 159.973 434.458 160.355 434.458 160.754C434.458 161.153 434.3 161.535 434.019 161.817C433.738 162.098 433.356 162.257 432.959 162.257Z" fill="#F2F2F2"/>
<path d="M432.959 211.55H397.574C397.176 211.55 396.795 211.392 396.514 211.11C396.232 210.828 396.074 210.446 396.074 210.047C396.074 209.649 396.232 209.266 396.514 208.984C396.795 208.703 397.176 208.544 397.574 208.544H432.959C433.356 208.544 433.738 208.703 434.019 208.984C434.3 209.266 434.458 209.649 434.458 210.047C434.458 210.446 434.3 210.828 434.019 211.11C433.738 211.392 433.356 211.55 432.959 211.55Z" fill="#F2F2F2"/>
<path d="M432.959 227.781H397.574C397.377 227.781 397.181 227.743 396.999 227.667C396.817 227.592 396.651 227.481 396.512 227.342C396.372 227.202 396.261 227.036 396.186 226.854C396.11 226.671 396.071 226.475 396.071 226.278C396.071 226.08 396.11 225.885 396.186 225.702C396.261 225.519 396.372 225.354 396.512 225.214C396.651 225.074 396.817 224.964 396.999 224.889C397.181 224.813 397.377 224.775 397.574 224.775H432.959C433.156 224.775 433.351 224.813 433.533 224.889C433.716 224.964 433.881 225.074 434.021 225.214C434.161 225.354 434.271 225.519 434.347 225.702C434.422 225.885 434.461 226.08 434.461 226.278C434.461 226.475 434.422 226.671 434.347 226.854C434.271 227.036 434.161 227.202 434.021 227.342C433.881 227.481 433.716 227.592 433.533 227.667C433.351 227.743 433.156 227.781 432.959 227.781Z" fill="#F2F2F2"/>
<path d="M492.333 227.781H456.948C456.551 227.78 456.171 227.621 455.89 227.339C455.61 227.058 455.452 226.676 455.452 226.278C455.452 225.88 455.61 225.498 455.89 225.216C456.171 224.935 456.551 224.776 456.948 224.775H492.333C492.531 224.775 492.726 224.813 492.908 224.889C493.09 224.964 493.256 225.074 493.396 225.214C493.535 225.354 493.646 225.519 493.722 225.702C493.797 225.885 493.836 226.08 493.836 226.278C493.836 226.475 493.797 226.671 493.722 226.854C493.646 227.036 493.535 227.202 493.396 227.342C493.256 227.481 493.09 227.592 492.908 227.667C492.726 227.743 492.531 227.781 492.333 227.781Z" fill="#F2F2F2"/>
<path d="M287.221 178.488H251.836C251.438 178.488 251.057 178.329 250.776 178.047C250.495 177.765 250.337 177.383 250.337 176.985C250.337 176.586 250.495 176.204 250.776 175.922C251.057 175.64 251.438 175.482 251.836 175.482H287.221C287.618 175.482 288 175.64 288.281 175.922C288.562 176.204 288.72 176.586 288.72 176.985C288.72 177.383 288.562 177.765 288.281 178.047C288 178.329 287.618 178.488 287.221 178.488Z" fill="#F2F2F2"/>
<path d="M375.833 405.416H252.286C251.888 405.416 251.507 405.258 251.225 404.976C250.944 404.694 250.786 404.312 250.786 403.914C250.786 403.515 250.944 403.133 251.225 402.851C251.507 402.569 251.888 402.411 252.286 402.411H375.833C376.231 402.411 376.612 402.569 376.893 402.851C377.174 403.133 377.332 403.515 377.332 403.914C377.332 404.312 377.174 404.694 376.893 404.976C376.612 405.258 376.231 405.416 375.833 405.416Z" fill="#F2F2F2"/>
<path d="M375.233 438.479H251.686C251.288 438.479 250.907 438.321 250.626 438.039C250.345 437.757 250.187 437.375 250.187 436.976C250.187 436.578 250.345 436.195 250.626 435.913C250.907 435.632 251.288 435.473 251.686 435.473H375.233C375.631 435.473 376.012 435.632 376.294 435.913C376.575 436.195 376.733 436.578 376.733 436.976C376.733 437.375 376.575 437.757 376.294 438.039C376.012 438.321 375.631 438.479 375.233 438.479Z" fill="#F2F2F2"/>
<path d="M375.533 455.01H251.986C251.789 455.011 251.593 454.972 251.411 454.897C251.229 454.821 251.063 454.711 250.924 454.571C250.784 454.432 250.673 454.266 250.598 454.083C250.522 453.901 250.483 453.705 250.483 453.507C250.483 453.31 250.522 453.114 250.598 452.931C250.673 452.749 250.784 452.583 250.924 452.444C251.063 452.304 251.229 452.193 251.411 452.118C251.593 452.043 251.789 452.004 251.986 452.005H375.533C375.73 452.004 375.926 452.043 376.108 452.118C376.29 452.193 376.456 452.304 376.595 452.444C376.735 452.583 376.846 452.749 376.921 452.931C376.997 453.114 377.036 453.31 377.036 453.507C377.036 453.705 376.997 453.901 376.921 454.083C376.846 454.266 376.735 454.432 376.595 454.571C376.456 454.711 376.29 454.821 376.108 454.897C375.926 454.972 375.73 455.011 375.533 455.01Z" fill="#F2F2F2"/>
<path d="M428.311 438.779H392.926C392.528 438.779 392.147 438.621 391.866 438.339C391.584 438.057 391.426 437.675 391.426 437.277C391.426 436.878 391.584 436.496 391.866 436.214C392.147 435.932 392.528 435.774 392.926 435.774H428.311C428.708 435.774 429.09 435.932 429.371 436.214C429.652 436.496 429.81 436.878 429.81 437.277C429.81 437.675 429.652 438.057 429.371 438.339C429.09 438.621 428.708 438.779 428.311 438.779Z" fill="#F2F2F2"/>
<path d="M428.311 455.01H392.926C392.528 455.01 392.147 454.852 391.866 454.57C391.584 454.288 391.426 453.906 391.426 453.507C391.426 453.109 391.584 452.727 391.866 452.445C392.147 452.163 392.528 452.005 392.926 452.005H428.311C428.708 452.005 429.09 452.163 429.371 452.445C429.652 452.727 429.81 453.109 429.81 453.507C429.81 453.906 429.652 454.288 429.371 454.57C429.09 454.852 428.708 455.01 428.311 455.01Z" fill="#F2F2F2"/>
<path d="M487.685 438.779H452.301C451.903 438.779 451.522 438.621 451.24 438.339C450.959 438.057 450.801 437.675 450.801 437.277C450.801 436.878 450.959 436.496 451.24 436.214C451.522 435.932 451.903 435.774 452.301 435.774H487.685C488.083 435.774 488.464 435.932 488.746 436.214C489.027 436.496 489.185 436.878 489.185 437.277C489.185 437.675 489.027 438.057 488.746 438.339C488.464 438.621 488.083 438.779 487.685 438.779Z" fill="#F2F2F2"/>
<path d="M511.076 421.948H316.758C316.361 421.948 315.979 421.789 315.698 421.508C315.417 421.226 315.259 420.843 315.259 420.445C315.259 420.046 315.417 419.664 315.698 419.382C315.979 419.1 316.361 418.942 316.758 418.942H511.076C511.473 418.942 511.855 419.1 512.136 419.382C512.417 419.664 512.575 420.046 512.575 420.445C512.575 420.843 512.417 421.226 512.136 421.508C511.855 421.789 511.473 421.948 511.076 421.948Z" fill="#F2F2F2"/>
<path d="M287.371 421.948H251.986C251.588 421.948 251.207 421.789 250.926 421.508C250.644 421.226 250.486 420.843 250.486 420.445C250.486 420.046 250.644 419.664 250.926 419.382C251.207 419.1 251.588 418.942 251.986 418.942H287.371C287.768 418.942 288.15 419.1 288.431 419.382C288.712 419.664 288.87 420.046 288.87 420.445C288.87 420.843 288.712 421.226 288.431 421.508C288.15 421.789 287.768 421.948 287.371 421.948Z" fill="#F2F2F2"/>
<path d="M511.076 471.842H316.758C316.561 471.842 316.366 471.804 316.183 471.729C316.001 471.653 315.836 471.543 315.696 471.403C315.556 471.263 315.446 471.098 315.37 470.915C315.295 470.732 315.256 470.537 315.256 470.339C315.256 470.142 315.295 469.946 315.37 469.763C315.446 469.581 315.556 469.415 315.696 469.275C315.836 469.136 316.001 469.025 316.183 468.95C316.366 468.874 316.561 468.836 316.758 468.836H511.076C511.473 468.836 511.855 468.995 512.136 469.276C512.417 469.558 512.575 469.941 512.575 470.339C512.575 470.738 512.417 471.12 512.136 471.402C511.855 471.684 511.473 471.842 511.076 471.842Z" fill="#F2F2F2"/>
<path d="M287.371 471.842H251.986C251.789 471.842 251.593 471.804 251.411 471.729C251.229 471.653 251.063 471.543 250.924 471.403C250.784 471.263 250.673 471.098 250.598 470.915C250.522 470.732 250.483 470.537 250.483 470.339C250.483 470.142 250.522 469.946 250.598 469.763C250.673 469.581 250.784 469.415 250.924 469.275C251.063 469.136 251.229 469.025 251.411 468.95C251.593 468.874 251.789 468.836 251.986 468.836H287.371C287.568 468.836 287.763 468.874 287.945 468.95C288.128 469.025 288.293 469.136 288.433 469.275C288.573 469.415 288.683 469.581 288.759 469.763C288.834 469.946 288.873 470.142 288.873 470.339C288.873 470.537 288.834 470.732 288.759 470.915C288.683 471.098 288.573 471.263 288.433 471.403C288.293 471.543 288.128 471.653 287.945 471.729C287.763 471.804 287.568 471.842 287.371 471.842Z" fill="#F2F2F2"/>
<path d="M345.996 267.756L298.016 315.246L345.996 362.736L356.791 351.916L320.507 315.546L357.091 278.877L345.996 267.756Z" fill="#FFC300"/>
<path d="M416.765 267.756L464.745 315.246L416.765 362.736L405.97 351.916L442.255 315.546L405.671 278.877L416.765 267.756Z" fill="#FFC300"/>
<path d="M144.299 124.156C147.609 124.156 150.293 121.466 150.293 118.148C150.293 114.831 147.609 112.141 144.299 112.141C140.989 112.141 138.305 114.831 138.305 118.148C138.305 121.466 140.989 124.156 144.299 124.156Z" fill="#FFC300"/>
<path d="M160.282 124.156C163.592 124.156 166.276 121.466 166.276 118.148C166.276 114.831 163.592 112.141 160.282 112.141C156.972 112.141 154.288 114.831 154.288 118.148C154.288 121.466 156.972 124.156 160.282 124.156Z" fill="#FFC300"/>
<path d="M176.265 124.156C179.575 124.156 182.259 121.466 182.259 118.148C182.259 114.831 179.575 112.141 176.265 112.141C172.955 112.141 170.271 114.831 170.271 118.148C170.271 121.466 172.955 124.156 176.265 124.156Z" fill="#FFC300"/>
<path opacity="0.1" d="M631.782 128.161H130.98V130.164H631.782V128.161Z" fill="black"/>
<path d="M750.323 405.479C750.323 448.046 725.075 462.909 693.931 462.909C662.787 462.909 637.54 448.046 637.54 405.479C637.54 362.911 693.931 308.758 693.931 308.758C693.931 308.758 750.323 362.911 750.323 405.479Z" fill="#FFC300"/>
<path d="M691.878 456.397L692.455 420.772L716.49 376.699L692.546 415.184L692.805 399.165L709.37 367.279L692.874 394.926L693.341 366.116L711.079 340.73L693.414 361.586L693.706 308.759L691.872 378.693L692.023 375.808L673.988 348.139L691.734 381.346L690.053 413.522L690.004 412.667L669.213 383.55L689.94 415.684L689.73 419.708L689.692 419.769L689.71 420.099L685.446 501.732H691.142L691.826 459.567L712.503 427.511L691.878 456.397Z" fill="#3F3D56"/>
<path d="M81.9837 501.358C80.2535 502.323 78.4284 503.106 76.5374 503.696C73.1551 504.622 69.5401 504.282 66.1237 505.072C64.725 505.396 63.2026 506.073 62.7578 507.441C62.4315 508.445 62.7865 509.528 63.1264 510.527C66.9014 521.621 69.1767 533.4 75.197 543.449C77.7271 547.669 80.8675 551.491 84.5156 554.788C85.8842 556.025 87.4352 557.234 89.2675 557.428C90.1119 557.518 90.9649 557.382 91.7404 557.035C92.5159 556.689 93.1864 556.143 93.6843 555.454C94.1822 554.764 94.4898 553.956 94.5762 553.109C94.6625 552.262 94.5245 551.408 94.176 550.632C93.6362 549.429 92.6328 548.498 91.9857 547.35C91.2839 545.888 90.8724 544.304 90.774 542.684C90.1792 537.939 89.6062 532.98 91.2464 528.489C92.3465 525.477 94.3645 522.91 96.0456 520.181C97.7267 517.452 99.1235 514.325 98.7494 511.14C98.4941 508.966 97.4362 506.977 96.3186 505.096C95.1988 503.212 92.9857 498.149 90.736 497.52C88.4007 496.867 84.0203 500.311 81.9837 501.358Z" fill="#2F2E41"/>
<path d="M143.542 539.678C143.577 540.752 143.428 541.823 143.1 542.846C142.396 544.71 140.649 545.987 139.746 547.763C138.491 550.233 139.06 553.219 139.891 555.863C140.413 557.521 141.097 559.245 142.497 560.27C143.694 561.014 145.056 561.452 146.462 561.543C158.473 563.21 170.675 562.254 182.796 562.603C185.005 562.666 187.344 562.744 189.272 561.662C191.201 560.58 192.393 557.859 191.081 556.076C189.904 554.475 187.575 554.49 185.593 554.396C180.43 554.133 175.514 552.103 171.665 548.645C170.906 547.995 170.248 547.236 169.712 546.391C169.3 545.642 168.958 544.856 168.69 544.043C166.991 539.43 164.969 534.943 162.641 530.614C161.989 529.403 161.251 528.141 160.04 527.493C159.153 527.089 158.19 526.878 157.216 526.875C154.195 526.679 146.372 525.648 144.036 528.003C141.878 530.178 143.59 536.915 143.542 539.678Z" fill="#2F2E41"/>
<path d="M162.131 270.804C172.788 270.804 181.428 262.145 181.428 251.463C181.428 240.781 172.788 232.122 162.131 232.122C151.475 232.122 142.835 240.781 142.835 251.463C142.835 262.145 151.475 270.804 162.131 270.804Z" fill="#FBBEBE"/>
<path d="M144.707 267.433C143.559 270.513 141.612 273.405 138.779 275.063L165.467 280.519C164.499 276.615 164.372 272.549 165.093 268.592C165.358 267.634 165.413 266.63 165.253 265.649C164.751 263.708 162.571 262.774 160.621 262.328C155.75 261.215 151.443 260.618 146.916 258.462C145.533 260.836 145.727 264.696 144.707 267.433Z" fill="#FBBEBE"/>
<path d="M138.556 267.821C141.427 266.519 144.555 265.885 147.706 265.968C150.856 266.05 153.947 266.847 156.746 268.297C160.167 270.105 163 272.833 165.784 275.524C168.35 278.005 171.087 280.846 171.269 284.414C171.357 286.143 170.819 287.834 170.547 289.543C170.058 293.079 170.679 296.679 172.323 299.845C173.968 303.011 176.554 305.585 179.724 307.212C181.844 310.752 182.281 315.041 182.314 319.17C182.437 334.813 177.513 350.65 181.028 365.892C181.854 369.471 183.134 372.937 183.847 376.54C184.77 381.206 184.725 386.004 185.208 390.737C185.732 395.862 186.876 400.905 188.613 405.753C187.452 407.605 185.035 408.315 182.858 408.165C180.681 408.015 178.646 407.068 176.703 406.071C167.298 401.247 158.683 394.886 148.941 390.786C142.496 388.073 135.63 386.384 129.378 383.251C123.126 380.118 117.311 375.146 115.399 368.407C114.573 365.493 114.522 362.423 114.477 359.394C114.287 346.635 114.11 333.737 116.881 321.283C119.324 310.3 124.034 299.794 125.062 288.588C125.396 284.941 125.403 281.036 127.436 277.993C130.31 273.691 136.515 272.577 138.556 267.821Z" fill="#2F2E41"/>
<path d="M151.157 251.736C152.294 250.249 154.487 250.047 156.303 250.486C158.12 250.926 159.795 251.864 161.629 252.221C162.046 252.34 162.483 252.37 162.913 252.309C163.342 252.249 163.754 252.099 164.122 251.87C164.763 251.237 165.147 250.388 165.198 249.487C165.841 245.655 165.991 241.756 165.645 237.885C165.549 237.342 165.586 236.784 165.751 236.258C166.205 235.161 167.59 234.9 168.722 234.548C170.589 233.916 172.193 232.678 173.28 231.03C174.367 229.382 174.875 227.418 174.724 225.448C174.696 224.503 174.3 223.607 173.621 222.951C172.838 222.312 171.743 222.273 170.733 222.265C165.546 222.223 160.359 222.224 155.172 222.268C153.252 222.285 151.236 222.332 149.572 223.292C148.341 224.001 147.426 225.143 146.322 226.036C143.441 228.366 139.544 228.841 136.038 230.035C134.327 230.523 132.774 231.452 131.532 232.729C130.366 234.063 129.805 236.048 130.538 237.663C130.913 238.336 131.333 238.984 131.794 239.602C133.862 242.915 132.485 247.213 132.794 251.109C133.18 255.974 140.363 263.866 145.233 265.018C153.097 266.876 148.554 254.929 151.157 251.736Z" fill="#2F2E41"/>
<path d="M140.264 465.039C140.76 468.592 141.396 472.156 141.226 475.739C140.989 480.741 139.189 485.56 138.856 490.557C138.608 494.289 139.182 498.061 138.665 501.765C138.334 504.137 137.563 506.424 137.085 508.77C136.328 512.594 136.35 516.532 137.148 520.347C137.946 524.163 139.504 527.777 141.729 530.975C142.056 531.522 142.52 531.974 143.076 532.284C143.609 532.482 144.18 532.558 144.746 532.505C150.363 532.391 155.964 531.881 161.509 530.979C161.915 530.962 162.299 530.792 162.585 530.503C162.71 530.311 162.79 530.093 162.819 529.866C163.847 524.568 161.502 519.257 160.906 513.893C160.27 508.166 161.641 502.427 163.001 496.829C163.618 494.067 164.389 491.342 165.311 488.667C165.968 486.866 166.763 485.115 167.333 483.285C168.14 480.409 168.632 477.454 168.799 474.472C169.195 469.766 169.405 465.049 169.428 460.322C169.563 455.842 169.191 451.361 168.32 446.965C167.069 441.399 164.508 436.231 161.969 431.125C160.612 431.451 159.337 432.058 158.228 432.907C154.956 435.031 151.54 436.922 148.005 438.568C145.63 439.674 140.998 440.459 139.491 442.764C138.004 445.036 138.963 449.673 139.077 452.179C139.272 456.481 139.667 460.768 140.264 465.039Z" fill="#2F2E41"/>
<path opacity="0.1" d="M140.264 465.039C140.76 468.592 141.396 472.156 141.226 475.739C140.989 480.741 139.189 485.56 138.856 490.557C138.608 494.289 139.182 498.061 138.665 501.765C138.334 504.137 137.563 506.424 137.085 508.77C136.328 512.594 136.35 516.532 137.148 520.347C137.946 524.163 139.504 527.777 141.729 530.975C142.056 531.522 142.52 531.974 143.076 532.284C143.609 532.482 144.18 532.558 144.746 532.505C150.363 532.391 155.964 531.881 161.509 530.979C161.915 530.962 162.299 530.792 162.585 530.503C162.71 530.311 162.79 530.093 162.819 529.866C163.847 524.568 161.502 519.257 160.906 513.893C160.27 508.166 161.641 502.427 163.001 496.829C163.618 494.067 164.389 491.342 165.311 488.667C165.968 486.866 166.763 485.115 167.333 483.285C168.14 480.409 168.632 477.454 168.799 474.472C169.195 469.766 169.405 465.049 169.428 460.322C169.563 455.842 169.191 451.361 168.32 446.965C167.069 441.399 164.508 436.231 161.969 431.125C160.612 431.451 159.337 432.058 158.228 432.907C154.956 435.031 151.54 436.922 148.005 438.568C145.63 439.674 140.998 440.459 139.491 442.764C138.004 445.036 138.963 449.673 139.077 452.179C139.272 456.481 139.667 460.768 140.264 465.039Z" fill="black"/>
<path d="M114.176 389.168C111.613 396.083 115.38 403.555 118.653 410.162C126.715 426.44 132.313 443.809 137.882 461.104C138.299 462.4 138.716 463.813 138.251 465.092C137.849 466.001 137.197 466.776 136.371 467.326C132.532 470.249 127.643 471.29 123.069 472.82C118.649 474.298 114.415 476.287 110.454 478.747C107.14 480.806 104.035 483.182 100.936 485.554L91.072 493.105C90.4334 493.538 89.8754 494.079 89.4233 494.705C88.4719 496.201 88.8616 498.154 89.3353 499.863C90.5896 504.39 92.2047 508.808 94.1649 513.075C94.4874 514.01 95.1014 514.817 95.9164 515.375C97.456 516.205 99.3392 515.105 100.515 513.809C101.691 512.512 102.708 510.899 104.365 510.343C106.02 509.787 107.842 510.46 109.571 510.217C112.367 509.823 114.224 507.241 116.239 505.259C124.474 497.162 138.223 497.749 147.281 490.589C148.591 489.415 149.977 488.33 151.431 487.34C152.962 486.433 154.699 485.935 156.288 485.133C161.12 482.694 164.159 477.651 165.786 472.479C167.413 467.307 167.878 461.847 169.047 456.552C169.652 453.815 170.448 451.107 170.717 448.316C170.889 445.721 170.833 443.115 170.548 440.529L167.279 400.001C167.013 396.701 166.747 393.398 166.23 390.128C156.523 390.476 146.822 390.868 137.109 390.983C129.38 391.074 121.509 391.616 114.176 389.168Z" fill="#2F2E41"/>
<path d="M110.607 398.648C111.924 400.771 115.129 400.727 117.336 399.563C119.543 398.4 121.258 396.444 123.47 395.291C126.443 393.74 129.961 393.798 133.311 393.893C138.614 394.043 143.983 394.203 149.085 395.66C154.363 397.167 159.501 400.068 164.958 399.489C165.907 399.388 166.946 399.115 167.462 398.31C167.765 397.727 167.908 397.074 167.875 396.417L168.054 391.639C168.163 390.812 168.031 389.972 167.674 389.219C167.216 388.592 166.588 388.111 165.865 387.831C158.098 384.062 149.24 383.36 140.615 383.064C136.231 382.914 131.845 382.852 127.458 382.878C123.734 382.901 119.264 382.361 115.644 383.358C110.786 384.697 108.143 394.675 110.607 398.648Z" fill="#2F2E41"/>
<path d="M159.38 273.494C149.203 273.404 139.98 266.67 129.804 266.506C128.574 266.421 127.342 266.634 126.212 267.128C124.794 267.843 123.862 269.228 122.785 270.397C119.776 273.663 115.418 275.407 112.327 278.595C109.429 281.584 107.817 286.037 108.961 290.045C110.105 294.052 114.424 297.126 118.47 296.162C120.1 290.874 123.465 286.292 128.018 283.16C130.387 281.637 132.884 280.323 135.48 279.233C140.054 277.156 145.169 275.04 149.944 276.597C151.705 277.263 153.365 278.171 154.878 279.294L162.839 284.654C161.911 280.986 161.077 276.873 159.38 273.494Z" fill="#FFC300"/>
<path d="M117.298 292.617C115.947 294.307 117.893 296.755 117.595 298.9C117.397 300.325 116.227 301.414 115.74 302.767C115.235 304.169 115.503 305.722 115.312 307.2C115.119 308.275 114.835 309.331 114.462 310.357C113.605 313.422 113.007 316.554 112.673 319.72L110.892 333.053C110.583 335.06 110.395 337.084 110.329 339.113C110.418 340.63 110.317 342.152 110.027 343.643C109.633 345.1 108.76 346.375 108.172 347.765C107.584 349.156 107.312 350.837 108.106 352.12C105.448 354.34 104.657 358.698 106.516 361.622C106.87 362.078 107.147 362.589 107.335 363.134C107.438 363.897 107.312 364.673 106.974 365.364L105.173 370.175C104.712 371.406 104.566 373.281 105.848 373.562C104.786 374.667 103.959 375.976 103.417 377.411C103.153 378.131 103.075 378.906 103.188 379.665C103.301 380.424 103.602 381.142 104.064 381.753C104.512 382.147 104.893 382.611 105.193 383.126C105.369 383.844 105.323 384.599 105.062 385.291C104.793 386.341 104.741 387.436 104.91 388.508C105.078 389.579 105.464 390.605 106.043 391.521C106.643 392.425 107.493 393.134 108.488 393.562C109.484 393.99 110.583 394.118 111.649 393.93C115.253 393.115 118.49 391.829 122.123 392.497C129.946 393.936 137.793 395.381 145.369 397.805C154.016 400.573 162.389 404.63 171.426 405.482C172.02 405.604 172.639 405.508 173.168 405.21C173.629 404.773 173.915 404.183 173.974 403.55C174.905 399.174 175.836 394.799 176.767 390.424C177.893 385.573 178.75 380.665 179.335 375.72C179.653 372.528 179.743 369.319 179.834 366.113L180.553 340.594C180.891 336.833 180.39 333.043 179.088 329.5L174.948 316.251C172.585 308.69 167.164 301.986 165.234 294.302C164.013 289.44 163.11 284.221 159.835 280.431C155.165 275.028 147.085 274.187 140.013 275.116C136.818 275.536 133.596 276.26 130.833 277.921C127.637 279.841 125.283 282.866 123.006 285.822C121.129 288.257 119.219 290.216 117.298 292.617Z" fill="#FFC300"/>
<path d="M133.81 367.678C134.393 370.196 135.617 372.518 136.366 374.991C137.621 379.136 137.514 383.599 138.767 387.744C139.292 389.484 140.054 391.155 140.431 392.933C141.311 397.078 140.026 401.367 138.431 405.292C136.835 409.217 134.892 413.087 134.374 417.294C134.01 420.256 134.534 423.602 136.812 425.524C139.177 427.52 142.615 427.385 145.695 427.12C146.801 427.089 147.893 426.861 148.919 426.447C151.275 425.33 152.267 422.535 152.818 419.982C154.664 411.425 154.137 402.556 153.6 393.818L152.198 370.966C151.928 366.567 151.638 362.077 150.286 357.852C149.794 356.316 148.936 353.211 147.536 352.229C146.149 351.258 142.188 351.214 140.471 351.134C132.414 350.754 132.505 362.026 133.81 367.678Z" fill="#FBBEBE"/>
<path d="M142.737 283.305C141.092 282.441 139.019 282.814 137.428 283.775C135.892 284.829 134.547 286.138 133.451 287.646C129.895 291.996 126.132 296.987 126.659 302.586C126.857 304.685 127.659 306.671 128.202 308.708C130.586 317.639 127.95 327.085 128.252 336.325C128.427 341.664 129.586 346.916 130.741 352.131C130.976 353.195 131.354 354.427 132.381 354.786C133.152 355.055 133.986 354.709 134.75 354.418C137.595 353.364 140.652 353.012 143.661 353.392C146.671 353.773 149.545 354.874 152.04 356.602C153.948 355.582 153.233 352.355 152.805 350.23C151.535 343.917 153.26 337.405 155.355 331.316C157.45 325.228 159.957 319.147 160.304 312.717C160.698 305.43 158.287 298.318 155.909 291.421C155.39 289.916 154.823 288.337 153.619 287.297C152.589 286.529 151.408 285.988 150.154 285.71C147.628 284.962 145.07 284.53 142.737 283.305Z" fill="#2F2E41"/>
</g>
<defs>
<clipPath id="clip0">
<rect width="750" height="570.717" fill="white" transform="translate(0.322632)"/>
</clipPath>
</defs>
</svg>
