<svg width="51" height="51" viewBox="0 0 51 51" fill="none" xmlns="http://www.w3.org/2000/svg">
<g clip-path="url(#clip0)">
<path d="M0.344849 0.975342H50.3448V50.9753H0.344849V0.975342Z" fill="#F7DF1E"/>
<path d="M13.4918 42.759L17.3179 40.4433C18.0562 41.7521 18.7277 42.8595 20.3385 42.8595C21.8824 42.8595 22.856 42.2556 22.856 39.9064V23.9302H27.5547V39.9728C27.5547 44.8394 24.7019 47.0547 20.5398 47.0547C16.781 47.0547 14.5992 45.108 13.4916 42.7586L13.4918 42.759ZM30.1068 42.2554L33.9326 40.0404C34.9398 41.6851 36.2488 42.8933 38.5644 42.8933C40.5115 42.8933 41.7529 41.9199 41.7529 40.5773C41.7529 38.9664 40.4775 38.3957 38.3295 37.4562L37.1551 36.9523C33.765 35.5095 31.5164 33.697 31.5164 29.8709C31.5164 26.3467 34.2013 23.6615 38.3969 23.6615C41.384 23.6615 43.532 24.7021 45.0758 27.4207L41.4172 29.7703C40.6115 28.3271 39.7392 27.7566 38.3967 27.7566C37.0205 27.7566 36.1478 28.6293 36.1478 29.7703C36.1478 31.1799 37.0205 31.7508 39.0342 32.6234L40.2088 33.1267C44.2029 34.8386 46.4515 36.5838 46.4515 40.5103C46.4515 44.7396 43.1289 47.0553 38.665 47.0553C34.3019 47.0553 31.4826 44.9744 30.1066 42.2556" fill="black"/>
</g>
<defs>
<clipPath id="clip0">
<rect width="50" height="50" fill="white" transform="translate(0.344849 0.975342)"/>
</clipPath>
</defs>
</svg>
